<svg width="159" height="159" viewBox="0 0 159 159" fill="none" xmlns="http://www.w3.org/2000/svg">
<circle cx="79.5" cy="79.5" r="79.5" fill="#FFF2F2"/>
<path d="M79.5095 127C60.0885 127 44.3149 110.625 44.3149 90.3892C44.3149 71.3756 73.2428 37.2093 76.4634 33.3678C77.8797 31.5441 80.9064 31.5441 82.5361 33.3678C85.7762 37.2093 114.685 71.395 114.685 90.3892C114.704 110.625 98.9305 127 79.5095 127ZM79.5095 42.0597C69.8087 53.9917 52.2114 78.0497 52.2114 90.3892C52.2114 106.163 64.3374 119.104 79.5095 119.104C94.4681 119.104 106.808 106.163 106.808 90.3892C106.808 78.0691 89.2103 53.9917 79.5095 42.0597Z" fill="#E1CACA"/>
<path d="M82.7496 108.394C81.3333 106.784 81.3333 104.358 82.9436 102.729C83.3511 102.321 93.2653 92.8144 87.1926 83.7151C85.9703 81.8913 86.5911 79.4661 88.4149 78.2632C90.2386 77.0409 92.6638 77.6617 93.8667 79.4855C101.55 91.2235 93.6727 103.757 88.4149 108.607C86.4553 110.024 83.5451 109.209 82.7496 108.394Z" fill="#E1CACA"/>
</svg>
