<svg width="159" height="159" viewBox="0 0 159 159" fill="none" xmlns="http://www.w3.org/2000/svg">
<circle cx="79.5" cy="79.5" r="79.5" fill="#CFE2FF"/>
<path d="M63.7052 100.705L68.685 105.336H55.0463C50.8814 105.336 47.7831 104.102 46.5487 101.951C45.312 99.7979 45.8067 96.5008 47.9046 92.9034L54.8123 81.0624L47.1825 76.6104L40.2726 88.4514C36.4831 94.9484 35.9906 101.304 38.8858 106.348C41.7831 111.389 47.5204 114.167 55.0441 114.167H68.685L63.703 118.798L69.7185 125.269L86.4069 109.755L69.7185 94.2373L63.7052 100.705Z" fill="#9FADC3"/>
<path d="M103.763 63.3604L94.2778 47.1027C90.4949 40.6146 85.1883 37.0415 79.3362 37.0415C73.4863 37.0415 68.1797 40.6146 64.3946 47.1027L59.9249 54.7634L58.4343 48.1273L49.8174 50.064L54.8104 72.2931L76.6221 65.699L74.0671 57.2455L67.5591 59.211L72.0266 51.5525C74.1289 47.9463 76.7944 45.8748 79.3362 45.8748C81.878 45.8748 84.5434 47.9463 86.6502 51.5525L96.135 67.8102L103.763 63.3604Z" fill="#9FADC3"/>
<path d="M98.7721 94.3565L107.389 96.2932L108.88 89.6616L110.77 92.9034C112.868 96.5008 113.363 99.7979 112.126 101.951C110.889 104.104 107.793 105.336 103.628 105.336H94.7949V114.17H103.628C111.152 114.17 116.889 111.392 119.784 106.35C122.682 101.308 122.189 94.9506 118.4 88.4537L116.507 85.2074L123.02 87.1772L125.577 78.7237L103.767 72.1274L98.7721 94.3565Z" fill="#9FADC3"/>
</svg>
