<svg width="146" height="36" viewBox="0 0 146 36" fill="none" xmlns="http://www.w3.org/2000/svg">
<path d="M10.4202 29.88C9.56682 29.08 8.75349 28.4667 7.98016 28.04C7.20682 27.64 6.26016 27.44 5.14016 27.44C4.04682 27.44 3.18016 27.64 2.54016 28.04C1.87349 28.4667 1.54016 29.0533 1.54016 29.8C1.54016 30.5733 1.98016 31.1867 2.86016 31.64C3.71349 32.12 4.72682 32.36 5.90016 32.36C7.07349 32.36 8.11349 32.2533 9.02016 32.04C9.55349 31.56 10.0202 30.84 10.4202 29.88ZM17.1802 33.92C17.6335 34.08 18.1135 34.1867 18.6202 34.24C19.1268 34.2933 19.7935 34.32 20.6202 34.32C21.4735 34.32 22.3402 34.0933 23.2202 33.64C24.1002 33.1867 24.7935 32.6533 25.3002 32.04C25.8335 31.4533 26.3002 30.7867 26.7002 30.04C27.2068 29.16 27.5802 28.28 27.8202 27.4L28.7802 27.72C28.0868 29.9867 26.9802 31.7867 25.4602 33.12C23.9668 34.4533 22.2202 35.12 20.2202 35.12C18.6468 35.12 17.5535 35 16.9402 34.76C16.3535 34.5467 15.9268 34.4 15.6602 34.32C15.3935 34.2667 15.0335 34.0667 14.5802 33.72C14.1535 33.4 13.9002 33.2133 13.8202 33.16C13.6068 33 13.0602 32.48 12.1802 31.6C10.4735 32.6133 8.63349 33.12 6.66016 33.12C4.68682 33.12 3.18016 32.8 2.14016 32.16C1.10016 31.5467 0.580156 30.76 0.580156 29.8C0.580156 28.8667 0.966823 28.1067 1.74016 27.52C2.48682 26.96 3.62016 26.68 5.14016 26.68C7.22016 26.68 9.08682 27.4533 10.7402 29C11.0602 28.0133 11.3268 26.92 11.5402 25.72L14.2202 10.24C14.8602 6.24 16.2468 3.54667 18.3802 2.16C20.2468 0.959999 22.3668 0.36 24.7402 0.36C27.1135 0.36 29.0468 1.04 30.5402 2.4C32.0602 3.76 32.8202 5.90667 32.8202 8.84H31.8602C31.8602 6.46667 31.2868 4.66666 30.1402 3.44C29.0202 2.18667 27.5935 1.56 25.8602 1.56C22.6868 1.56 20.8068 3.53333 20.2202 7.48C20.2202 7.90667 19.8735 10.1067 19.1802 14.08C18.5135 18.0267 17.9135 21.2933 17.3802 23.88C16.8202 27 15.3268 29.4133 12.9002 31.12C14.3402 32.56 15.4068 33.3867 16.1002 33.6C16.3668 33.68 16.7268 33.7867 17.1802 33.92ZM39.4358 25.92C38.6358 26.88 37.6358 27.36 36.4358 27.36C35.2358 27.36 34.2891 27.0533 33.5958 26.44C32.9291 25.8267 32.5958 25.0267 32.5958 24.04C32.5958 23.6933 32.8091 22.24 33.2358 19.68L34.5558 12.52H32.8758L32.9558 11.8H34.6758C36.6491 11.8 38.1024 11.72 39.0358 11.56L39.5958 11.44L36.8358 26.56C37.6358 26.48 38.3024 26.1067 38.8358 25.44L39.4358 25.92ZM35.9158 7.6C35.3558 7.04 35.0758 6.36 35.0758 5.56C35.0758 4.76 35.3558 4.08 35.9158 3.52C36.4758 2.93333 37.1558 2.64 37.9558 2.64C38.7558 2.64 39.4358 2.93333 39.9958 3.52C40.5824 4.08 40.8758 4.76 40.8758 5.56C40.8758 6.36 40.5824 7.04 39.9958 7.6C39.4358 8.16 38.7558 8.44 37.9558 8.44C37.1558 8.44 36.4758 8.16 35.9158 7.6ZM49.0433 25.56C48.6966 26.0133 48.2166 26.4267 47.6033 26.8C47.0166 27.1733 46.2433 27.36 45.2833 27.36C44.3233 27.36 43.5099 27.0533 42.8433 26.44C42.1766 25.8267 41.8433 24.96 41.8433 23.84C41.8433 23.6267 41.8699 23.28 41.9233 22.8L44.5233 8.4C45.0033 5.76 45.6566 3.88 46.4833 2.76C47.3366 1.64 48.4566 1.08 49.8433 1.08C50.8033 1.08 51.5899 1.44 52.2033 2.16C52.8433 2.88 53.1633 3.97333 53.1633 5.44C53.1633 6.90667 52.5899 9 51.4433 11.72C50.3233 14.44 49.7633 16.4267 49.7633 17.68H49.0433C49.0433 16.2667 49.6033 14.2533 50.7233 11.64C51.8433 9 52.4033 6.89333 52.4033 5.32C52.4033 4.36 52.1766 3.53333 51.7233 2.84C51.2966 2.14666 50.7633 1.8 50.1233 1.8C50.0966 2.49333 49.6299 5.61333 48.7233 11.16C47.8433 16.68 46.9633 21.8133 46.0833 26.56C46.8299 26.56 47.5233 26.1733 48.1633 25.4C48.8033 24.6267 49.2566 23.8533 49.5233 23.08L49.9633 21.88L50.6833 22.2C50.6033 22.5733 50.3899 23.12 50.0433 23.84C49.7233 24.5333 49.3899 25.1067 49.0433 25.56ZM71.3317 33.12V32.36C72.9851 32.28 74.1051 31.8533 74.6917 31.08C75.2784 30.3067 75.8251 28.52 76.3317 25.72L80.1717 3.6C74.7051 4.05333 70.4784 5.24 67.4917 7.16C64.5317 9.05333 63.0517 11.5333 63.0517 14.6C63.0517 15.9867 63.5317 17.16 64.4917 18.12C65.1584 18.76 66.0384 19.2533 67.1317 19.6C68.2251 19.92 69.1184 20.1067 69.8117 20.16C70.5317 20.1867 70.9184 20.1733 70.9717 20.12V20.96C67.8251 20.96 65.4917 20.2133 63.9717 18.72C62.8517 17.68 62.2917 16.3067 62.2917 14.6C62.2917 10.7867 64.2784 7.84 68.2517 5.76C72.2517 3.68 77.8917 2.64 85.1717 2.64C89.7051 2.64 92.9184 3.25333 94.8117 4.48C96.7317 5.70667 97.6917 7.38667 97.6917 9.52C97.6917 11.6267 96.9584 13.44 95.4917 14.96C94.0517 16.48 92.1451 17.6533 89.7717 18.48C93.2384 25.68 95.4651 30 96.4517 31.44C97.4384 32.9067 98.6251 33.64 100.012 33.64C100.838 33.64 101.572 33.3733 102.212 32.84C102.878 32.3333 103.345 31.64 103.612 30.76H104.612C103.758 33.5333 101.665 34.92 98.3317 34.92C96.2251 34.92 94.4784 34.4133 93.0917 33.4C91.7317 32.4133 90.5851 30.9067 89.6517 28.88L85.3317 19.52C84.2651 19.6267 83.4784 19.68 82.9717 19.68C82.8917 20.08 82.7717 20.76 82.6117 21.72C82.4517 22.68 82.3184 23.4 82.2117 23.88C81.6784 26.76 80.3317 29.0133 78.1717 30.64C76.0384 32.2933 73.7584 33.12 71.3317 33.12ZM96.6517 9.64C96.6517 5.56 92.9451 3.48 85.5317 3.4L83.1317 18.8C86.9184 18.6933 90.1184 17.7467 92.7317 15.96C95.3451 14.1467 96.6517 12.04 96.6517 9.64ZM105.699 27.36C103.645 27.36 102.085 26.8533 101.019 25.84C99.9519 24.8 99.4186 23.5067 99.4186 21.96C99.4186 20.3867 99.5519 19.0533 99.8186 17.96C100.112 16.84 100.579 15.7733 101.219 14.76C101.859 13.72 102.819 12.9067 104.099 12.32C105.405 11.7333 107.019 11.44 108.939 11.44C110.885 11.44 112.392 11.96 113.459 13C114.552 14.0133 115.099 15.4133 115.099 17.2C115.099 20.24 114.285 22.6933 112.659 24.56C111.059 26.4267 108.739 27.36 105.699 27.36ZM103.939 23.24C103.939 25.3733 104.552 26.44 105.779 26.44C107.032 26.44 108.139 25.3733 109.099 23.24C110.085 21.08 110.579 18.52 110.579 15.56C110.579 13.32 109.965 12.2 108.739 12.2C107.539 12.2 106.432 13.2267 105.419 15.28C104.432 17.3067 103.939 19.96 103.939 23.24ZM120.835 26.32C123.475 26.32 124.795 24.3733 124.795 20.48C124.795 19.52 124.648 18.3867 124.355 17.08C124.088 15.7733 123.928 14.96 123.875 14.64C122.248 16.32 120.422 17.3333 118.395 17.68V16.72C120.315 16.2933 122.115 15.2 123.795 13.44V13.28C123.795 12.64 123.888 12.0133 124.075 11.4C124.262 10.7867 124.448 10.3333 124.635 10.04L124.915 9.6H125.875C125.875 10.7733 126.062 11.8533 126.435 12.84C126.808 13.8 127.222 14.5867 127.675 15.2C128.128 15.7867 128.542 16.5733 128.915 17.56C129.288 18.52 129.475 19.5867 129.475 20.76C129.475 22.6533 128.755 24.2267 127.315 25.48C125.902 26.7333 124.195 27.36 122.195 27.36C120.195 27.36 118.675 26.9067 117.635 26C116.622 25.0933 116.115 24.0533 116.115 22.88C116.115 21.68 116.408 20.8267 116.995 20.32C117.582 19.7867 118.275 19.52 119.075 19.52C119.875 19.52 120.528 19.7867 121.035 20.32C121.568 20.8267 121.835 21.4933 121.835 22.32C121.835 23.12 121.582 23.8 121.075 24.36C120.568 24.92 119.915 25.2 119.115 25.2C118.768 25.2 118.408 25.1467 118.035 25.04C118.622 25.8933 119.555 26.32 120.835 26.32ZM140.441 11.44C143.828 11.44 145.521 12.7867 145.521 15.48C145.521 17.16 144.721 18.44 143.121 19.32C141.548 20.1733 139.295 20.6133 136.361 20.64C136.308 21.6 136.281 22.36 136.281 22.92C136.281 24.12 136.548 25.0133 137.081 25.6C137.641 26.16 138.335 26.44 139.161 26.44C139.988 26.44 140.735 26.28 141.401 25.96C142.095 25.64 142.641 25.2667 143.041 24.84C143.441 24.3867 143.788 23.92 144.081 23.44C144.615 22.56 144.881 22 144.881 21.76L145.601 22.08C145.521 22.5067 145.281 23.08 144.881 23.8C144.481 24.4933 144.041 25.0667 143.561 25.52C143.081 25.9733 142.375 26.4 141.441 26.8C140.508 27.1733 139.468 27.36 138.321 27.36C136.161 27.36 134.521 26.8533 133.401 25.84C132.308 24.8 131.761 23.3867 131.761 21.6C131.761 18.4267 132.548 15.9467 134.121 14.16C135.695 12.3467 137.801 11.44 140.441 11.44ZM144.521 15.48C144.521 14.6 144.255 13.88 143.721 13.32C143.215 12.7333 142.441 12.44 141.401 12.44C140.388 12.44 139.388 13.0533 138.401 14.28C137.441 15.5067 136.801 17.32 136.481 19.72C141.841 19.6933 144.521 18.28 144.521 15.48Z" fill="white"/>
</svg>
